# xmcd
#
# Track frame offsets:
#        150
#        13850
#        27197
#        42215
#        55517
#        68430
#        82602
#        95407
#        108360
#        122480
#        136730
#        150030
#        164272
#        178750
#        192077
#        207435
#        221930
#        235392
#        248737
#        263007
#
# Disc length: 3693 seconds
#
# Revision: 5
# Processed by: cddbd v1.5.2PL0 Copyright (c) Steve Scherf et al.
# Submitted via: jack 3.1.1
#
DISCID=f80e6b14
DTITLE=Various Artist - Raunchy Business: Hot Nuts and Lollypops
DYEAR=1991
DGENRE=Blues
TTITLE0=Lil Johnson - Sam -The Hot Dog Man (mono)
TTITLE1=Lil Johnson - My Stove's In Good Condition (mono)
TTITLE2=Lonnie Johnson - Wipe It Off (mono)
TTITLE3=Lonnie Johnson - The Best Jockey In Town (mono)
TTITLE4=Bessie Jackson (Lucille Bogan) - Shave 'Em Dry (mono)
TTITLE5=Bessie Jackson (Lucille Bogan) - Shave 'Em Dry (alt) (mono)
TTITLE6=Lillie Mae Kirkman - He's Just My Size (mono)
TTITLE7=Barrel House Annie - If It Don't Fit (Don't Force It) (mono)
TTITLE8=Lonnie Johnson and Victoria Spivey - Furniture Man Blues - Part
TTITLE8=I (mono)
TTITLE9=Lonnie Johnson and Victoria Spivey - Furniture Man Blues - Part
TTITLE9=II (mono)
TTITLE10=Bo Carter - My Pencil Won't Write No More (mono)
TTITLE11=Bo Carter - Banana In Your Fruit Basket (mono)
TTITLE12=Lil Johnson - Get 'Em From The Peanut Man (Hot Nuts) (mono)
TTITLE13=Lil Johnson - Get 'Em From The Peanut Man (The New Hot Nuts)
TTITLE13=(mono)
TTITLE14=The Mississippi Sheiks - Driving That Thing (mono)
TTITLE15=The Mississippi Sheiks - Bed Spring Poker (mono)
TTITLE16=Hunter and Jenkins - Lollypop (mono)
TTITLE17=Hunter and Jenkins - Meat Cuttin' Blues (mono)
TTITLE18=Buddy Moss - You Got To Give Me Some Of It (mono)
TTITLE19=Bernice Edwards - Butcher Shop Blues (mono)
EXTD=
EXTT0=
EXTT1=
EXTT2=
EXTT3=
EXTT4=
EXTT5=
EXTT6=
EXTT7=
EXTT8=
EXTT9=
EXTT10=
EXTT11=
EXTT12=
EXTT13=
EXTT14=
EXTT15=
EXTT16=
EXTT17=
EXTT18=
EXTT19=
PLAYORDER=
